<svg width="107" height="18" viewBox="0 0 107 18" fill="none" xmlns="http://www.w3.org/2000/svg">
<path d="M3.696 0.0559998V1.56H2.08V16.456H3.696V17.976H0.368V0.0559998H3.696ZM14.7416 7.192C14.7416 7.75733 14.6083 8.29067 14.3416 8.792C14.075 9.29333 13.6483 9.704 13.0616 10.024C12.475 10.3333 11.723 10.488 10.8056 10.488H8.78963V15H6.96563V3.88H10.8056C11.659 3.88 12.379 4.02933 12.9656 4.328C13.563 4.616 14.0056 5.01067 14.2936 5.512C14.5923 6.01333 14.7416 6.57333 14.7416 7.192ZM10.8056 9C11.499 9 12.0163 8.84533 12.3576 8.536C12.699 8.216 12.8696 7.768 12.8696 7.192C12.8696 5.976 12.1816 5.368 10.8056 5.368H8.78963V9H10.8056ZM18.3053 3.16V15H16.4813V3.16H18.3053ZM20.092 10.552C20.092 9.66667 20.2733 8.88267 20.636 8.2C21.0093 7.51733 21.5107 6.98933 22.14 6.616C22.78 6.232 23.484 6.04 24.252 6.04C24.9453 6.04 25.548 6.17867 26.06 6.456C26.5827 6.72267 26.9987 7.05867 27.308 7.464V6.184H29.148V15H27.308V13.688C26.9987 14.104 26.5773 14.4507 26.044 14.728C25.5107 15.0053 24.9027 15.144 24.22 15.144C23.4627 15.144 22.7693 14.952 22.14 14.568C21.5107 14.1733 21.0093 13.6293 20.636 12.936C20.2733 12.232 20.092 11.4373 20.092 10.552ZM27.308 10.584C27.308 9.976 27.18 9.448 26.924 9C26.6787 8.552 26.3533 8.21067 25.948 7.976C25.5427 7.74133 25.1053 7.624 24.636 7.624C24.1667 7.624 23.7293 7.74133 23.324 7.976C22.9187 8.2 22.588 8.536 22.332 8.984C22.0867 9.42133 21.964 9.944 21.964 10.552C21.964 11.16 22.0867 11.6933 22.332 12.152C22.588 12.6107 22.9187 12.9627 23.324 13.208C23.74 13.4427 24.1773 13.56 24.636 13.56C25.1053 13.56 25.5427 13.4427 25.948 13.208C26.3533 12.9733 26.6787 12.632 26.924 12.184C27.18 11.7253 27.308 11.192 27.308 10.584ZM30.9358 10.584C30.9358 9.67733 31.1171 8.88267 31.4798 8.2C31.8531 7.50667 32.3651 6.97333 33.0158 6.6C33.6664 6.22667 34.4131 6.04 35.2558 6.04C36.3224 6.04 37.2024 6.296 37.8958 6.808C38.5998 7.30933 39.0744 8.02933 39.3198 8.968H37.3518C37.1918 8.53067 36.9358 8.18933 36.5838 7.944C36.2318 7.69867 35.7891 7.576 35.2558 7.576C34.5091 7.576 33.9118 7.84267 33.4638 8.376C33.0264 8.89867 32.8078 9.63467 32.8078 10.584C32.8078 11.5333 33.0264 12.2747 33.4638 12.808C33.9118 13.3413 34.5091 13.608 35.2558 13.608C36.3118 13.608 37.0104 13.144 37.3518 12.216H39.3198C39.0638 13.112 38.5838 13.8267 37.8798 14.36C37.1758 14.8827 36.3011 15.144 35.2558 15.144C34.4131 15.144 33.6664 14.9573 33.0158 14.584C32.3651 14.2 31.8531 13.6667 31.4798 12.984C31.1171 12.2907 30.9358 11.4907 30.9358 10.584ZM49.2175 10.376C49.2175 10.7067 49.1962 11.0053 49.1535 11.272H42.4175C42.4708 11.976 42.7322 12.5413 43.2015 12.968C43.6708 13.3947 44.2468 13.608 44.9295 13.608C45.9108 13.608 46.6042 13.1973 47.0095 12.376H48.9775C48.7108 13.1867 48.2255 13.8533 47.5215 14.376C46.8282 14.888 45.9642 15.144 44.9295 15.144C44.0868 15.144 43.3295 14.9573 42.6575 14.584C41.9962 14.2 41.4735 13.6667 41.0895 12.984C40.7162 12.2907 40.5295 11.4907 40.5295 10.584C40.5295 9.67733 40.7108 8.88267 41.0735 8.2C41.4468 7.50667 41.9642 6.97333 42.6255 6.6C43.2975 6.22667 44.0655 6.04 44.9295 6.04C45.7615 6.04 46.5028 6.22133 47.1535 6.584C47.8042 6.94667 48.3108 7.45867 48.6735 8.12C49.0362 8.77067 49.2175 9.52267 49.2175 10.376ZM47.3135 9.8C47.3028 9.128 47.0628 8.58933 46.5935 8.184C46.1242 7.77867 45.5428 7.576 44.8495 7.576C44.2202 7.576 43.6815 7.77867 43.2335 8.184C42.7855 8.57867 42.5188 9.11733 42.4335 9.8H47.3135ZM55.5725 6.04C56.2445 6.04 56.8418 6.184 57.3645 6.472C57.8978 6.76 58.3138 7.18667 58.6125 7.752C58.9218 8.31733 59.0765 9 59.0765 9.8V15H57.2685V10.072C57.2685 9.28267 57.0712 8.68 56.6765 8.264C56.2818 7.83733 55.7432 7.624 55.0605 7.624C54.3778 7.624 53.8338 7.83733 53.4285 8.264C53.0338 8.68 52.8365 9.28267 52.8365 10.072V15H51.0125V3.16H52.8365V7.208C53.1458 6.83467 53.5352 6.54667 54.0045 6.344C54.4845 6.14133 55.0072 6.04 55.5725 6.04ZM65.2271 15.144C64.3951 15.144 63.6431 14.9573 62.9711 14.584C62.2991 14.2 61.7711 13.6667 61.3871 12.984C61.0031 12.2907 60.8111 11.4907 60.8111 10.584C60.8111 9.688 61.0085 8.89333 61.4031 8.2C61.7978 7.50667 62.3365 6.97333 63.0191 6.6C63.7018 6.22667 64.4645 6.04 65.3071 6.04C66.1498 6.04 66.9125 6.22667 67.5951 6.6C68.2778 6.97333 68.8165 7.50667 69.2111 8.2C69.6058 8.89333 69.8031 9.688 69.8031 10.584C69.8031 11.48 69.6005 12.2747 69.1951 12.968C68.7898 13.6613 68.2351 14.2 67.5311 14.584C66.8378 14.9573 66.0698 15.144 65.2271 15.144ZM65.2271 13.56C65.6965 13.56 66.1338 13.448 66.5391 13.224C66.9551 13 67.2911 12.664 67.5471 12.216C67.8031 11.768 67.9311 11.224 67.9311 10.584C67.9311 9.944 67.8085 9.40533 67.5631 8.968C67.3178 8.52 66.9925 8.184 66.5871 7.96C66.1818 7.736 65.7445 7.624 65.2751 7.624C64.8058 7.624 64.3685 7.736 63.9631 7.96C63.5685 8.184 63.2538 8.52 63.0191 8.968C62.7845 9.40533 62.6671 9.944 62.6671 10.584C62.6671 11.5333 62.9071 12.2693 63.3871 12.792C63.8778 13.304 64.4911 13.56 65.2271 13.56ZM73.4303 3.16V15H71.6063V3.16H73.4303ZM75.217 10.552C75.217 9.66667 75.3983 8.88267 75.761 8.2C76.1343 7.51733 76.6357 6.98933 77.265 6.616C77.905 6.232 78.6143 6.04 79.393 6.04C79.969 6.04 80.5343 6.168 81.089 6.424C81.6543 6.66933 82.1023 7 82.433 7.416V3.16H84.273V15H82.433V13.672C82.1343 14.0987 81.7183 14.4507 81.185 14.728C80.6623 15.0053 80.0597 15.144 79.377 15.144C78.609 15.144 77.905 14.952 77.265 14.568C76.6357 14.1733 76.1343 13.6293 75.761 12.936C75.3983 12.232 75.217 11.4373 75.217 10.552ZM82.433 10.584C82.433 9.976 82.305 9.448 82.049 9C81.8037 8.552 81.4783 8.21067 81.073 7.976C80.6677 7.74133 80.2303 7.624 79.761 7.624C79.2917 7.624 78.8543 7.74133 78.449 7.976C78.0437 8.2 77.713 8.536 77.457 8.984C77.2117 9.42133 77.089 9.944 77.089 10.552C77.089 11.16 77.2117 11.6933 77.457 12.152C77.713 12.6107 78.0437 12.9627 78.449 13.208C78.865 13.4427 79.3023 13.56 79.761 13.56C80.2303 13.56 80.6677 13.4427 81.073 13.208C81.4783 12.9733 81.8037 12.632 82.049 12.184C82.305 11.7253 82.433 11.192 82.433 10.584ZM94.7488 10.376C94.7488 10.7067 94.7274 11.0053 94.6848 11.272H87.9488C88.0021 11.976 88.2634 12.5413 88.7328 12.968C89.2021 13.3947 89.7781 13.608 90.4608 13.608C91.4421 13.608 92.1354 13.1973 92.5408 12.376H94.5087C94.2421 13.1867 93.7568 13.8533 93.0528 14.376C92.3594 14.888 91.4954 15.144 90.4608 15.144C89.6181 15.144 88.8608 14.9573 88.1888 14.584C87.5274 14.2 87.0048 13.6667 86.6208 12.984C86.2474 12.2907 86.0608 11.4907 86.0608 10.584C86.0608 9.67733 86.2421 8.88267 86.6048 8.2C86.9781 7.50667 87.4954 6.97333 88.1568 6.6C88.8288 6.22667 89.5968 6.04 90.4608 6.04C91.2928 6.04 92.0341 6.22133 92.6848 6.584C93.3354 6.94667 93.8421 7.45867 94.2048 8.12C94.5674 8.77067 94.7488 9.52267 94.7488 10.376ZM92.8448 9.8C92.8341 9.128 92.5941 8.58933 92.1248 8.184C91.6554 7.77867 91.0741 7.576 90.3808 7.576C89.7514 7.576 89.2128 7.77867 88.7648 8.184C88.3168 8.57867 88.0501 9.11733 87.9648 9.8H92.8448ZM98.3678 7.464C98.6344 7.016 98.9864 6.66933 99.4238 6.424C99.8718 6.168 100.4 6.04 101.008 6.04V7.928H100.544C99.8291 7.928 99.2851 8.10933 98.9118 8.472C98.5491 8.83467 98.3678 9.464 98.3678 10.36V15H96.5438V6.184H98.3678V7.464ZM106.86 17.976H103.532V16.456H105.148V1.56H103.532V0.0559998H106.86V17.976Z" fill="#8B8E99"/>
</svg>
